<svg xmlns="http://www.w3.org/2000/svg" viewBox="0 0 1200 800" role="img" aria-label="Event placeholder illustration">
  <defs>
    <linearGradient id="bg" x1="0" x2="1" y1="0" y2="1">
      <stop offset="0%" stop-color="#0b1f3a"/>
      <stop offset="100%" stop-color="#0ea5a4"/>
    </linearGradient>
    <linearGradient id="card" x1="0" x2="1" y1="0" y2="0">
      <stop offset="0%" stop-color="#ffffff" stop-opacity="0.16"/>
      <stop offset="100%" stop-color="#ffffff" stop-opacity="0.04"/>
    </linearGradient>
  </defs>
  <rect width="1200" height="800" fill="url(#bg)"/>
  <rect x="140" y="110" width="920" height="580" rx="36" fill="url(#card)" stroke="rgba(255,255,255,0.25)"/>
  <circle cx="270" cy="260" r="110" fill="rgba(255,255,255,0.1)"/>
  <path d="M215 312c40-70 110-105 170-105s130 35 170 105" fill="none" stroke="#fff" stroke-width="18" stroke-linecap="round" opacity="0.9"/>
  <circle cx="270" cy="210" r="36" fill="#f97316" opacity="0.9"/>
  <rect x="470" y="200" width="420" height="22" rx="11" fill="rgba(255,255,255,0.8)"/>
  <rect x="470" y="246" width="340" height="18" rx="9" fill="rgba(255,255,255,0.5)"/>
  <rect x="470" y="302" width="280" height="18" rx="9" fill="rgba(255,255,255,0.5)"/>
  <rect x="470" y="358" width="360" height="18" rx="9" fill="rgba(255,255,255,0.5)"/>
  <rect x="470" y="430" width="170" height="46" rx="23" fill="#f97316"/>
  <text x="540" y="460" fill="#ffffff" font-size="22" font-family="Segoe UI, Arial, sans-serif" font-weight="700">EVENT</text>
</svg>
